<svg width="182" height="154" viewBox="0 0 182 154" fill="none" xmlns="http://www.w3.org/2000/svg">
<path d="M144 87L110.25 109.517V64.4833L144 87Z" fill="black"/>
<path d="M134 87L105.5 106.053V67.9474L134 87Z" fill="#CEAB41"/>
<path d="M71.1362 51.5933L0 68.9474L65.0389 99.1217L65.3515 153.06L96.1512 129.14L71.6053 140.084L75.3575 95.2131L31.5813 70.8236L77.2336 60.6612L89.8974 18.7612L113.818 51.7497L157.907 41.9L118.352 43.3071L86.3016 0L71.1362 51.5933Z" fill="black"/>
<path d="M182 88L148.25 110.517V65.4833L182 88Z" fill="black"/>
<path d="M173 88L144.5 107.053V68.9474L173 88Z" fill="#CEAB41"/>
</svg>
